<svg xmlns="http://www.w3.org/2000/svg" version="1.1" xmlns:xlink="http://www.w3.org/1999/xlink" xmlns:svgjs="http://svgjs.dev/svgjs" width="1000" height="1000" viewBox="0 0 1000 1000"><g transform="matrix(1,0,0,1,-0.14221556886212738,-0.14221556886229791)"><svg viewBox="0 0 334 334" data-background-color="#111111" preserveAspectRatio="xMidYMid meet" height="1000" width="1000" xmlns="http://www.w3.org/2000/svg" xmlns:xlink="http://www.w3.org/1999/xlink"><g id="tight-bounds" transform="matrix(1,0,0,1,0.04749999999998522,0.04750000000001364)"><svg viewBox="0 0 333.90454557049503 333.90454557049503" height="333.90454557049503" width="333.90454557049503"><g><svg></svg></g><g><svg viewBox="0 0 333.90454557049503 333.90454557049503" height="333.90454557049503" width="333.90454557049503"><g><path d="M0 166.952c0-92.205 74.747-166.952 166.952-166.952 92.205 0 166.952 74.747 166.953 166.952 0 92.205-74.747 166.952-166.953 166.953-92.205 0-166.952-74.747-166.952-166.953zM166.952 316.63c82.665 0 149.677-67.013 149.678-149.678 0-82.665-67.013-149.677-149.678-149.677-82.665 0-149.677 67.013-149.677 149.677 0 82.665 67.013 149.677 149.677 149.678z" data-fill-palette-color="tertiary" fill="#fe0039" stroke="transparent"></path><ellipse rx="160.27418187383762" ry="160.27418187383762" cx="166.95227278524752" cy="166.95227278524752" fill="#fe0039" stroke="transparent" stroke-width="0" fill-opacity="1" data-fill-palette-color="tertiary"></ellipse></g><g transform="matrix(1,0,0,1,106.49941406031351,71.17305217166896)"><svg viewBox="0 0 120.905717449868 191.55844122715712" height="191.55844122715712" width="120.905717449868"><g><svg viewBox="0 0 120.905717449868 191.55844122715712" height="191.55844122715712" width="120.905717449868"><g><svg viewBox="0 0 120.905717449868 191.55844122715712" height="191.55844122715712" width="120.905717449868"><g id="textblocktransform"><svg viewBox="0 0 120.905717449868 191.55844122715712" height="191.55844122715712" width="120.905717449868" id="textblock"><g><svg viewBox="0 0 120.905717449868 191.55844122715712" height="191.55844122715712" width="120.905717449868"><g transform="matrix(1,0,0,1,0,0)"><svg width="120.905717449868" viewBox="0.3500000238418579 -37.599998474121094 24.299999237060547 38.5" height="191.55844122715712" data-palette-color="#0a1627"><path d="M9.05-8.95L9.05-8.95Q9.05-6.55 10.28-5.23 11.5-3.9 13.8-3.9L13.8-3.9Q16.45-3.9 19.15-5.35 21.85-6.8 23.05-9L23.05-9 24.2-8.5Q22.35-4.25 18.28-1.68 14.2 0.9 9.55 0.9L9.55 0.9Q5.25 0.9 2.8-1.5 0.35-3.9 0.35-7.9L0.35-7.9Q0.35-12.25 3-16.07 5.65-19.9 9.6-20.85L9.6-20.85Q8.1-21.9 7.33-23.45 6.55-25 6.55-26.85L6.55-26.85Q6.55-31.05 9.78-34.33 13-37.6 17.5-37.6L17.5-37.6Q20.7-37.6 22.68-35.9 24.65-34.2 24.65-31.35L24.65-31.35Q24.65-29.15 23.58-27.65 22.5-26.15 20.95-26.15L20.95-26.15Q20.25-26.15 19.68-26.5 19.1-26.85 18.6-27.5L18.6-27.5Q19.5-27.8 20.15-29.13 20.8-30.45 20.8-31.85L20.8-31.85Q20.8-33.15 20.05-33.9 19.3-34.65 18.05-34.65L18.05-34.65Q15.95-34.65 14.45-32.52 12.95-30.4 12.95-27.6L12.95-27.6Q12.95-25.1 14.28-23.33 15.6-21.55 18-20.9L18-20.9Q14.3-20.05 11.68-16.43 9.05-12.8 9.05-8.95Z" opacity="1" transform="matrix(1,0,0,1,0,0)" fill="#0a1627" class="undefined-text-0" data-fill-palette-color="quaternary" id="text-0"></path></svg></g></svg></g></svg></g></svg></g><g></g></svg></g></svg></g></svg></g><defs></defs></svg><rect width="333.90454557049503" height="333.90454557049503" fill="none" stroke="none" visibility="hidden"></rect></g></svg></g></svg>